<?xml version="1.0" encoding="UTF-8" standalone="no"?>
<!DOCTYPE svg PUBLIC "-//W3C//DTD SVG 1.1//EN"
 "http://www.w3.org/Graphics/SVG/1.1/DTD/svg11.dtd">
<!-- Generated by graphviz version 2.47.0 (20210316.0004)
 -->
<!-- Title: dependencies Pages: 1 -->
<svg width="504pt" height="211pt"
 viewBox="0.00 0.00 504.00 211.00" xmlns="http://www.w3.org/2000/svg" xmlns:xlink="http://www.w3.org/1999/xlink">
<g id="graph0" class="graph" transform="scale(1 1) rotate(0) translate(4 207)">
<title>dependencies</title>
<polygon fill="white" stroke="transparent" points="-4,4 -4,-207 500,-207 500,4 -4,4"/>
<text text-anchor="start" x="227.01" y="-42.4" font-family="Times-12" font-weight="bold" font-size="14.00">Legend</text>
<polygon fill="#ffffb3" stroke="transparent" points="14,-10 14,-30 34,-30 34,-10 14,-10"/>
<text text-anchor="start" x="37.63" y="-15.4" font-family="Times-12" font-size="14.00"> &#160;Declarations</text>
<polygon fill="#8dd3c7" stroke="transparent" points="127,-10 127,-30 147,-30 147,-10 127,-10"/>
<text text-anchor="start" x="150.73" y="-15.4" font-family="Times-12" font-size="14.00"> &#160;Module</text>
<polygon fill="#80b1d3" stroke="transparent" points="213,-10 213,-30 233,-30 233,-10 213,-10"/>
<text text-anchor="start" x="236.78" y="-15.4" font-family="Times-12" font-size="14.00"> &#160;Bootstrap</text>
<polygon fill="#fdb462" stroke="transparent" points="310,-10 310,-30 330,-30 330,-10 310,-10"/>
<text text-anchor="start" x="333.67" y="-15.4" font-family="Times-12" font-size="14.00"> &#160;Providers</text>
<polygon fill="#fb8072" stroke="transparent" points="406,-10 406,-30 426,-30 426,-10 406,-10"/>
<text text-anchor="start" x="429.73" y="-15.4" font-family="Times-12" font-size="14.00"> &#160;Exports</text>
<g id="clust1" class="cluster">
<title>cluster_AppRoutingModule</title>
<polygon fill="none" stroke="black" stroke-dasharray="1,5" points="112,-70 112,-195 384,-195 384,-70 112,-70"/>
</g>
<g id="clust3" class="cluster">
<title>cluster_AppRoutingModule_imports</title>
<polygon fill="none" stroke="black" points="290,-78 290,-130 376,-130 376,-78 290,-78"/>
</g>
<g id="clust6" class="cluster">
<title>cluster_AppRoutingModule_providers</title>
<polygon fill="none" stroke="black" points="120,-78 120,-130 282,-130 282,-78 120,-78"/>
</g>
<!-- TimePipe -->
<g id="node1" class="node">
<title>TimePipe</title>
<polygon fill="#8dd3c7" stroke="black" points="368.44,-122 365.44,-126 344.44,-126 341.44,-122 297.56,-122 297.56,-86 368.44,-86 368.44,-122"/>
<text text-anchor="middle" x="333" y="-99.8" font-family="Times,serif" font-size="14.00">TimePipe</text>
</g>
<!-- AppRoutingModule -->
<g id="node2" class="node">
<title>AppRoutingModule</title>
<polygon fill="#8dd3c7" stroke="black" points="320.27,-187 317.27,-191 296.27,-191 293.27,-187 191.73,-187 191.73,-151 320.27,-151 320.27,-187"/>
<text text-anchor="middle" x="256" y="-164.8" font-family="Times,serif" font-size="14.00">AppRoutingModule</text>
</g>
<!-- TimePipe&#45;&gt;AppRoutingModule -->
<g id="edge1" class="edge">
<title>TimePipe&#45;&gt;AppRoutingModule</title>
<path fill="none" stroke="black" d="M309.08,-122.11C309.08,-122.11 309.08,-140.99 309.08,-140.99"/>
<polygon fill="black" stroke="black" points="305.58,-140.99 309.08,-150.99 312.58,-140.99 305.58,-140.99"/>
</g>
<!-- AuthInterceptor -->
<g id="node3" class="node">
<title>AuthInterceptor</title>
<ellipse fill="#fdb462" stroke="black" cx="201" cy="-104" rx="72.91" ry="18"/>
<text text-anchor="middle" x="201" y="-99.8" font-family="Times,serif" font-size="14.00">AuthInterceptor</text>
</g>
<!-- AuthInterceptor&#45;&gt;AppRoutingModule -->
<g id="edge2" class="edge">
<title>AuthInterceptor&#45;&gt;AppRoutingModule</title>
<path fill="none" stroke="black" d="M232.66,-120.4C232.66,-120.4 232.66,-140.54 232.66,-140.54"/>
<polygon fill="black" stroke="black" points="229.16,-140.54 232.66,-150.54 236.16,-140.54 229.16,-140.54"/>
</g>
</g>
</svg>
