<?xml version="1.0" encoding="UTF-8" standalone="no"?>
<!DOCTYPE svg PUBLIC "-//W3C//DTD SVG 1.1//EN"
 "http://www.w3.org/Graphics/SVG/1.1/DTD/svg11.dtd">
<!-- Generated by graphviz version 2.47.0 (20210316.0004)
 -->
<!-- Title: dependencies Pages: 1 -->
<svg width="504pt" height="284pt"
 viewBox="0.00 0.00 504.00 284.00" xmlns="http://www.w3.org/2000/svg" xmlns:xlink="http://www.w3.org/1999/xlink">
<g id="graph0" class="graph" transform="scale(1 1) rotate(0) translate(4 280)">
<title>dependencies</title>
<polygon fill="white" stroke="transparent" points="-4,4 -4,-280 500,-280 500,4 -4,4"/>
<text text-anchor="start" x="227.01" y="-42.4" font-family="Times-12" font-weight="bold" font-size="14.00">Legend</text>
<polygon fill="#ffffb3" stroke="transparent" points="14,-10 14,-30 34,-30 34,-10 14,-10"/>
<text text-anchor="start" x="37.63" y="-15.4" font-family="Times-12" font-size="14.00"> &#160;Declarations</text>
<polygon fill="#8dd3c7" stroke="transparent" points="127,-10 127,-30 147,-30 147,-10 127,-10"/>
<text text-anchor="start" x="150.73" y="-15.4" font-family="Times-12" font-size="14.00"> &#160;Module</text>
<polygon fill="#80b1d3" stroke="transparent" points="213,-10 213,-30 233,-30 233,-10 213,-10"/>
<text text-anchor="start" x="236.78" y="-15.4" font-family="Times-12" font-size="14.00"> &#160;Bootstrap</text>
<polygon fill="#fdb462" stroke="transparent" points="310,-10 310,-30 330,-30 330,-10 310,-10"/>
<text text-anchor="start" x="333.67" y="-15.4" font-family="Times-12" font-size="14.00"> &#160;Providers</text>
<polygon fill="#fb8072" stroke="transparent" points="406,-10 406,-30 426,-30 426,-10 406,-10"/>
<text text-anchor="start" x="429.73" y="-15.4" font-family="Times-12" font-size="14.00"> &#160;Exports</text>
<g id="clust1" class="cluster">
<title>cluster_TrajetModule</title>
<polygon fill="none" stroke="black" stroke-dasharray="1,5" points="111,-70 111,-268 385,-268 385,-70 111,-70"/>
</g>
<g id="clust6" class="cluster">
<title>cluster_TrajetModule_providers</title>
<polygon fill="none" stroke="black" points="235,-78 235,-130 377,-130 377,-78 235,-78"/>
</g>
<g id="clust3" class="cluster">
<title>cluster_TrajetModule_imports</title>
<polygon fill="none" stroke="black" points="119,-78 119,-130 227,-130 227,-78 119,-78"/>
</g>
<g id="clust4" class="cluster">
<title>cluster_TrajetModule_exports</title>
<polygon fill="none" stroke="black" points="185,-208 185,-260 295,-260 295,-208 185,-208"/>
</g>
<!-- EmailModule -->
<g id="node1" class="node">
<title>EmailModule</title>
<polygon fill="#8dd3c7" stroke="black" points="219.49,-122 216.49,-126 195.49,-126 192.49,-122 126.51,-122 126.51,-86 219.49,-86 219.49,-122"/>
<text text-anchor="middle" x="173" y="-99.8" font-family="Times,serif" font-size="14.00">EmailModule</text>
</g>
<!-- TrajetModule -->
<g id="node2" class="node">
<title>TrajetModule</title>
<polygon fill="#8dd3c7" stroke="black" points="286.47,-187 283.47,-191 262.47,-191 259.47,-187 193.53,-187 193.53,-151 286.47,-151 286.47,-187"/>
<text text-anchor="middle" x="240" y="-164.8" font-family="Times,serif" font-size="14.00">TrajetModule</text>
</g>
<!-- EmailModule&#45;&gt;TrajetModule -->
<g id="edge1" class="edge">
<title>EmailModule&#45;&gt;TrajetModule</title>
<path fill="none" stroke="black" d="M206.5,-122.11C206.5,-122.11 206.5,-140.99 206.5,-140.99"/>
<polygon fill="black" stroke="black" points="203,-140.99 206.5,-150.99 210,-140.99 203,-140.99"/>
</g>
<!-- TrajetService  -->
<g id="node3" class="node">
<title>TrajetService </title>
<polygon fill="#fb8072" stroke="black" points="287.4,-252 192.6,-252 192.6,-216 287.4,-216 287.4,-252"/>
<text text-anchor="middle" x="240" y="-229.8" font-family="Times,serif" font-size="14.00">TrajetService </text>
</g>
<!-- TrajetModule&#45;&gt;TrajetService  -->
<g id="edge2" class="edge">
<title>TrajetModule&#45;&gt;TrajetService </title>
<path fill="none" stroke="black" stroke-dasharray="5,2" d="M240,-187.11C240,-187.11 240,-205.99 240,-205.99"/>
<polygon fill="black" stroke="black" points="236.5,-205.99 240,-215.99 243.5,-205.99 236.5,-205.99"/>
</g>
<!-- TrajetService -->
<g id="node4" class="node">
<title>TrajetService</title>
<ellipse fill="#fdb462" stroke="black" cx="306" cy="-104" rx="63.09" ry="18"/>
<text text-anchor="middle" x="306" y="-99.8" font-family="Times,serif" font-size="14.00">TrajetService</text>
</g>
<!-- TrajetService&#45;&gt;TrajetModule -->
<g id="edge3" class="edge">
<title>TrajetService&#45;&gt;TrajetModule</title>
<path fill="none" stroke="black" d="M264.72,-117.78C264.72,-117.78 264.72,-140.55 264.72,-140.55"/>
<polygon fill="black" stroke="black" points="261.22,-140.55 264.72,-150.55 268.22,-140.55 261.22,-140.55"/>
</g>
</g>
</svg>
