<?xml version="1.0" encoding="UTF-8" standalone="no"?>
<!DOCTYPE svg PUBLIC "-//W3C//DTD SVG 1.1//EN"
 "http://www.w3.org/Graphics/SVG/1.1/DTD/svg11.dtd">
<!-- Generated by graphviz version 2.47.0 (20210316.0004)
 -->
<!-- Title: dependencies Pages: 1 -->
<svg width="504pt" height="211pt"
 viewBox="0.00 0.00 504.00 211.00" xmlns="http://www.w3.org/2000/svg" xmlns:xlink="http://www.w3.org/1999/xlink">
<g id="graph0" class="graph" transform="scale(1 1) rotate(0) translate(4 207)">
<title>dependencies</title>
<polygon fill="white" stroke="transparent" points="-4,4 -4,-207 500,-207 500,4 -4,4"/>
<text text-anchor="start" x="227.01" y="-42.4" font-family="Times-12" font-weight="bold" font-size="14.00">Legend</text>
<polygon fill="#ffffb3" stroke="transparent" points="14,-10 14,-30 34,-30 34,-10 14,-10"/>
<text text-anchor="start" x="37.63" y="-15.4" font-family="Times-12" font-size="14.00"> &#160;Declarations</text>
<polygon fill="#8dd3c7" stroke="transparent" points="127,-10 127,-30 147,-30 147,-10 127,-10"/>
<text text-anchor="start" x="150.73" y="-15.4" font-family="Times-12" font-size="14.00"> &#160;Module</text>
<polygon fill="#80b1d3" stroke="transparent" points="213,-10 213,-30 233,-30 233,-10 213,-10"/>
<text text-anchor="start" x="236.78" y="-15.4" font-family="Times-12" font-size="14.00"> &#160;Bootstrap</text>
<polygon fill="#fdb462" stroke="transparent" points="310,-10 310,-30 330,-30 330,-10 310,-10"/>
<text text-anchor="start" x="333.67" y="-15.4" font-family="Times-12" font-size="14.00"> &#160;Providers</text>
<polygon fill="#fb8072" stroke="transparent" points="406,-10 406,-30 426,-30 426,-10 406,-10"/>
<text text-anchor="start" x="429.73" y="-15.4" font-family="Times-12" font-size="14.00"> &#160;Exports</text>
<g id="clust1" class="cluster">
<title>cluster_AppRoutingModule</title>
<polygon fill="none" stroke="black" stroke-dasharray="1,5" points="112,-70 112,-195 384,-195 384,-70 112,-70"/>
</g>
<g id="clust6" class="cluster">
<title>cluster_AppRoutingModule_providers</title>
<polygon fill="none" stroke="black" points="214,-78 214,-130 376,-130 376,-78 214,-78"/>
</g>
<g id="clust3" class="cluster">
<title>cluster_AppRoutingModule_imports</title>
<polygon fill="none" stroke="black" points="120,-78 120,-130 206,-130 206,-78 120,-78"/>
</g>
<!-- TimePipe -->
<g id="node1" class="node">
<title>TimePipe</title>
<polygon fill="#8dd3c7" stroke="black" points="198.44,-122 195.44,-126 174.44,-126 171.44,-122 127.56,-122 127.56,-86 198.44,-86 198.44,-122"/>
<text text-anchor="middle" x="163" y="-99.8" font-family="Times,serif" font-size="14.00">TimePipe</text>
</g>
<!-- AppRoutingModule -->
<g id="node2" class="node">
<title>AppRoutingModule</title>
<polygon fill="#8dd3c7" stroke="black" points="303.27,-187 300.27,-191 279.27,-191 276.27,-187 174.73,-187 174.73,-151 303.27,-151 303.27,-187"/>
<text text-anchor="middle" x="239" y="-164.8" font-family="Times,serif" font-size="14.00">AppRoutingModule</text>
</g>
<!-- TimePipe&#45;&gt;AppRoutingModule -->
<g id="edge1" class="edge">
<title>TimePipe&#45;&gt;AppRoutingModule</title>
<path fill="none" stroke="black" d="M186.42,-122.11C186.42,-122.11 186.42,-140.99 186.42,-140.99"/>
<polygon fill="black" stroke="black" points="182.92,-140.99 186.42,-150.99 189.92,-140.99 182.92,-140.99"/>
</g>
<!-- AuthInterceptor -->
<g id="node3" class="node">
<title>AuthInterceptor</title>
<ellipse fill="#fdb462" stroke="black" cx="295" cy="-104" rx="72.91" ry="18"/>
<text text-anchor="middle" x="295" y="-99.8" font-family="Times,serif" font-size="14.00">AuthInterceptor</text>
</g>
<!-- AuthInterceptor&#45;&gt;AppRoutingModule -->
<g id="edge2" class="edge">
<title>AuthInterceptor&#45;&gt;AppRoutingModule</title>
<path fill="none" stroke="black" d="M262.84,-120.4C262.84,-120.4 262.84,-140.54 262.84,-140.54"/>
<polygon fill="black" stroke="black" points="259.34,-140.54 262.84,-150.54 266.34,-140.54 259.34,-140.54"/>
</g>
</g>
</svg>
