<?xml version="1.0" encoding="UTF-8" standalone="no"?>
<!DOCTYPE svg PUBLIC "-//W3C//DTD SVG 1.1//EN"
 "http://www.w3.org/Graphics/SVG/1.1/DTD/svg11.dtd">
<!-- Generated by graphviz version 2.47.0 (20210316.0004)
 -->
<!-- Title: dependencies Pages: 1 -->
<svg width="1235pt" height="211pt"
 viewBox="0.00 0.00 1235.00 211.00" xmlns="http://www.w3.org/2000/svg" xmlns:xlink="http://www.w3.org/1999/xlink">
<g id="graph0" class="graph" transform="scale(1 1) rotate(0) translate(4 207)">
<title>dependencies</title>
<polygon fill="white" stroke="transparent" points="-4,4 -4,-207 1231,-207 1231,4 -4,4"/>
<text text-anchor="start" x="592.51" y="-42.4" font-family="Times-12" font-weight="bold" font-size="14.00">Legend</text>
<polygon fill="#ffffb3" stroke="transparent" points="379.5,-10 379.5,-30 399.5,-30 399.5,-10 379.5,-10"/>
<text text-anchor="start" x="403.13" y="-15.4" font-family="Times-12" font-size="14.00"> &#160;Declarations</text>
<polygon fill="#8dd3c7" stroke="transparent" points="492.5,-10 492.5,-30 512.5,-30 512.5,-10 492.5,-10"/>
<text text-anchor="start" x="516.23" y="-15.4" font-family="Times-12" font-size="14.00"> &#160;Module</text>
<polygon fill="#80b1d3" stroke="transparent" points="578.5,-10 578.5,-30 598.5,-30 598.5,-10 578.5,-10"/>
<text text-anchor="start" x="602.28" y="-15.4" font-family="Times-12" font-size="14.00"> &#160;Bootstrap</text>
<polygon fill="#fdb462" stroke="transparent" points="675.5,-10 675.5,-30 695.5,-30 695.5,-10 675.5,-10"/>
<text text-anchor="start" x="699.17" y="-15.4" font-family="Times-12" font-size="14.00"> &#160;Providers</text>
<polygon fill="#fb8072" stroke="transparent" points="771.5,-10 771.5,-30 791.5,-30 791.5,-10 771.5,-10"/>
<text text-anchor="start" x="795.23" y="-15.4" font-family="Times-12" font-size="14.00"> &#160;Exports</text>
<g id="clust1" class="cluster">
<title>cluster_AppModule</title>
<polygon fill="none" stroke="black" stroke-dasharray="1,5" points="8,-70 8,-195 1219,-195 1219,-70 8,-70"/>
</g>
<g id="clust6" class="cluster">
<title>cluster_AppModule_providers</title>
<polygon fill="none" stroke="black" points="1081,-78 1081,-130 1211,-130 1211,-78 1081,-78"/>
</g>
<g id="clust3" class="cluster">
<title>cluster_AppModule_imports</title>
<polygon fill="none" stroke="black" points="16,-78 16,-130 1073,-130 1073,-78 16,-78"/>
</g>
<!-- AuthModule -->
<g id="node1" class="node">
<title>AuthModule</title>
<polygon fill="#8dd3c7" stroke="black" points="1064.55,-122 1061.55,-126 1040.55,-126 1037.55,-122 977.45,-122 977.45,-86 1064.55,-86 1064.55,-122"/>
<text text-anchor="middle" x="1021" y="-99.8" font-family="Times,serif" font-size="14.00">AuthModule</text>
</g>
<!-- AppModule -->
<g id="node10" class="node">
<title>AppModule</title>
<polygon fill="#8dd3c7" stroke="black" points="641.66,-187 638.66,-191 617.66,-191 614.66,-187 558.34,-187 558.34,-151 641.66,-151 641.66,-187"/>
<text text-anchor="middle" x="600" y="-164.8" font-family="Times,serif" font-size="14.00">AppModule</text>
</g>
<!-- AuthModule&#45;&gt;AppModule -->
<g id="edge1" class="edge">
<title>AuthModule&#45;&gt;AppModule</title>
<path fill="none" stroke="black" d="M1021,-122.13C1021,-142.57 1021,-173 1021,-173 1021,-173 651.91,-173 651.91,-173"/>
<polygon fill="black" stroke="black" points="651.91,-169.5 641.91,-173 651.91,-176.5 651.91,-169.5"/>
</g>
<!-- EmailModule -->
<g id="node2" class="node">
<title>EmailModule</title>
<polygon fill="#8dd3c7" stroke="black" points="959.49,-122 956.49,-126 935.49,-126 932.49,-122 866.51,-122 866.51,-86 959.49,-86 959.49,-122"/>
<text text-anchor="middle" x="913" y="-99.8" font-family="Times,serif" font-size="14.00">EmailModule</text>
</g>
<!-- EmailModule&#45;&gt;AppModule -->
<g id="edge2" class="edge">
<title>EmailModule&#45;&gt;AppModule</title>
<path fill="none" stroke="black" d="M913,-122.27C913,-140.56 913,-166 913,-166 913,-166 651.89,-166 651.89,-166"/>
<polygon fill="black" stroke="black" points="651.89,-162.5 641.89,-166 651.89,-169.5 651.89,-162.5"/>
</g>
<!-- InscriptionModule -->
<g id="node3" class="node">
<title>InscriptionModule</title>
<polygon fill="#8dd3c7" stroke="black" points="848.2,-122 845.2,-126 824.2,-126 821.2,-122 727.8,-122 727.8,-86 848.2,-86 848.2,-122"/>
<text text-anchor="middle" x="788" y="-99.8" font-family="Times,serif" font-size="14.00">InscriptionModule</text>
</g>
<!-- InscriptionModule&#45;&gt;AppModule -->
<g id="edge3" class="edge">
<title>InscriptionModule&#45;&gt;AppModule</title>
<path fill="none" stroke="black" d="M788,-122.01C788,-138.05 788,-159 788,-159 788,-159 651.72,-159 651.72,-159"/>
<polygon fill="black" stroke="black" points="651.72,-155.5 641.72,-159 651.72,-162.5 651.72,-155.5"/>
</g>
<!-- MarqueModule -->
<g id="node4" class="node">
<title>MarqueModule</title>
<polygon fill="#8dd3c7" stroke="black" points="709.58,-122 706.58,-126 685.58,-126 682.58,-122 606.42,-122 606.42,-86 709.58,-86 709.58,-122"/>
<text text-anchor="middle" x="658" y="-99.8" font-family="Times,serif" font-size="14.00">MarqueModule</text>
</g>
<!-- MarqueModule&#45;&gt;AppModule -->
<g id="edge4" class="edge">
<title>MarqueModule&#45;&gt;AppModule</title>
<path fill="none" stroke="black" d="M624.14,-122.11C624.14,-122.11 624.14,-140.99 624.14,-140.99"/>
<polygon fill="black" stroke="black" points="620.64,-140.99 624.14,-150.99 627.64,-140.99 620.64,-140.99"/>
</g>
<!-- ProfilModule -->
<g id="node5" class="node">
<title>ProfilModule</title>
<polygon fill="#8dd3c7" stroke="black" points="588.94,-122 585.94,-126 564.94,-126 561.94,-122 497.06,-122 497.06,-86 588.94,-86 588.94,-122"/>
<text text-anchor="middle" x="543" y="-99.8" font-family="Times,serif" font-size="14.00">ProfilModule</text>
</g>
<!-- ProfilModule&#45;&gt;AppModule -->
<g id="edge5" class="edge">
<title>ProfilModule&#45;&gt;AppModule</title>
<path fill="none" stroke="black" d="M573.44,-122.11C573.44,-122.11 573.44,-140.99 573.44,-140.99"/>
<polygon fill="black" stroke="black" points="569.94,-140.99 573.44,-150.99 576.94,-140.99 569.94,-140.99"/>
</g>
<!-- TrajetModule -->
<g id="node6" class="node">
<title>TrajetModule</title>
<polygon fill="#8dd3c7" stroke="black" points="479.47,-122 476.47,-126 455.47,-126 452.47,-122 386.53,-122 386.53,-86 479.47,-86 479.47,-122"/>
<text text-anchor="middle" x="433" y="-99.8" font-family="Times,serif" font-size="14.00">TrajetModule</text>
</g>
<!-- TrajetModule&#45;&gt;AppModule -->
<g id="edge6" class="edge">
<title>TrajetModule&#45;&gt;AppModule</title>
<path fill="none" stroke="black" d="M433,-122.01C433,-138.05 433,-159 433,-159 433,-159 548.29,-159 548.29,-159"/>
<polygon fill="black" stroke="black" points="548.29,-162.5 558.29,-159 548.29,-155.5 548.29,-162.5"/>
</g>
<!-- UtilisateurModule -->
<g id="node7" class="node">
<title>UtilisateurModule</title>
<polygon fill="#8dd3c7" stroke="black" points="368.14,-122 365.14,-126 344.14,-126 341.14,-122 249.86,-122 249.86,-86 368.14,-86 368.14,-122"/>
<text text-anchor="middle" x="309" y="-99.8" font-family="Times,serif" font-size="14.00">UtilisateurModule</text>
</g>
<!-- UtilisateurModule&#45;&gt;AppModule -->
<g id="edge7" class="edge">
<title>UtilisateurModule&#45;&gt;AppModule</title>
<path fill="none" stroke="black" d="M309,-122.27C309,-140.56 309,-166 309,-166 309,-166 548.31,-166 548.31,-166"/>
<polygon fill="black" stroke="black" points="548.31,-169.5 558.31,-166 548.31,-162.5 548.31,-169.5"/>
</g>
<!-- VilleModule -->
<g id="node8" class="node">
<title>VilleModule</title>
<polygon fill="#8dd3c7" stroke="black" points="231.54,-122 228.54,-126 207.54,-126 204.54,-122 144.46,-122 144.46,-86 231.54,-86 231.54,-122"/>
<text text-anchor="middle" x="188" y="-99.8" font-family="Times,serif" font-size="14.00">VilleModule</text>
</g>
<!-- VilleModule&#45;&gt;AppModule -->
<g id="edge8" class="edge">
<title>VilleModule&#45;&gt;AppModule</title>
<path fill="none" stroke="black" d="M188,-122.13C188,-142.57 188,-173 188,-173 188,-173 548.23,-173 548.23,-173"/>
<polygon fill="black" stroke="black" points="548.23,-176.5 558.23,-173 548.23,-169.5 548.23,-176.5"/>
</g>
<!-- VoitureModule -->
<g id="node9" class="node">
<title>VoitureModule</title>
<polygon fill="#8dd3c7" stroke="black" points="126.31,-122 123.31,-126 102.31,-126 99.31,-122 23.69,-122 23.69,-86 126.31,-86 126.31,-122"/>
<text text-anchor="middle" x="75" y="-99.8" font-family="Times,serif" font-size="14.00">VoitureModule</text>
</g>
<!-- VoitureModule&#45;&gt;AppModule -->
<g id="edge9" class="edge">
<title>VoitureModule&#45;&gt;AppModule</title>
<path fill="none" stroke="black" d="M75,-122.01C75,-144.49 75,-180 75,-180 75,-180 547.92,-180 547.92,-180"/>
<polygon fill="black" stroke="black" points="547.92,-183.5 557.92,-180 547.92,-176.5 547.92,-183.5"/>
</g>
<!-- AppService -->
<g id="node11" class="node">
<title>AppService</title>
<ellipse fill="#fdb462" stroke="black" cx="1146" cy="-104" rx="56.74" ry="18"/>
<text text-anchor="middle" x="1146" y="-99.8" font-family="Times,serif" font-size="14.00">AppService</text>
</g>
<!-- AppService&#45;&gt;AppModule -->
<g id="edge10" class="edge">
<title>AppService&#45;&gt;AppModule</title>
<path fill="none" stroke="black" d="M1146,-122.01C1146,-144.49 1146,-180 1146,-180 1146,-180 651.94,-180 651.94,-180"/>
<polygon fill="black" stroke="black" points="651.94,-176.5 641.94,-180 651.94,-183.5 651.94,-176.5"/>
</g>
</g>
</svg>
