<?xml version="1.0" encoding="UTF-8" standalone="no"?>
<!DOCTYPE svg PUBLIC "-//W3C//DTD SVG 1.1//EN"
 "http://www.w3.org/Graphics/SVG/1.1/DTD/svg11.dtd">
<!-- Generated by graphviz version 2.47.0 (20210316.0004)
 -->
<!-- Title: dependencies Pages: 1 -->
<svg width="3786pt" height="306pt"
 viewBox="0.00 0.00 3786.00 306.00" xmlns="http://www.w3.org/2000/svg" xmlns:xlink="http://www.w3.org/1999/xlink">
<g id="graph0" class="graph" transform="scale(1 1) rotate(0) translate(4 302)">
<title>dependencies</title>
<polygon fill="white" stroke="transparent" points="-4,4 -4,-302 3782,-302 3782,4 -4,4"/>
<text text-anchor="start" x="1868.01" y="-42.4" font-family="Times-12" font-weight="bold" font-size="14.00">Legend</text>
<polygon fill="#ffffb3" stroke="transparent" points="1655,-10 1655,-30 1675,-30 1675,-10 1655,-10"/>
<text text-anchor="start" x="1678.63" y="-15.4" font-family="Times-12" font-size="14.00"> &#160;Declarations</text>
<polygon fill="#8dd3c7" stroke="transparent" points="1768,-10 1768,-30 1788,-30 1788,-10 1768,-10"/>
<text text-anchor="start" x="1791.73" y="-15.4" font-family="Times-12" font-size="14.00"> &#160;Module</text>
<polygon fill="#80b1d3" stroke="transparent" points="1854,-10 1854,-30 1874,-30 1874,-10 1854,-10"/>
<text text-anchor="start" x="1877.78" y="-15.4" font-family="Times-12" font-size="14.00"> &#160;Bootstrap</text>
<polygon fill="#fdb462" stroke="transparent" points="1951,-10 1951,-30 1971,-30 1971,-10 1951,-10"/>
<text text-anchor="start" x="1974.67" y="-15.4" font-family="Times-12" font-size="14.00"> &#160;Providers</text>
<polygon fill="#fb8072" stroke="transparent" points="2047,-10 2047,-30 2067,-30 2067,-10 2047,-10"/>
<text text-anchor="start" x="2070.73" y="-15.4" font-family="Times-12" font-size="14.00"> &#160;Exports</text>
<g id="clust1" class="cluster">
<title>cluster_AppModule</title>
<polygon fill="none" stroke="black" stroke-dasharray="1,5" points="626,-70 626,-282 1620,-282 1620,-70 626,-70"/>
</g>
<g id="clust3" class="cluster">
<title>cluster_AppModule_imports</title>
<polygon fill="none" stroke="black" points="772,-78 772,-206 1612,-206 1612,-78 772,-78"/>
</g>
<g id="clust6" class="cluster">
<title>cluster_AppModule_providers</title>
<polygon fill="none" stroke="black" points="634,-154 634,-206 764,-206 764,-154 634,-154"/>
</g>
<g id="clust7" class="cluster">
<title>cluster_AuthModule</title>
<polygon fill="none" stroke="black" stroke-dasharray="1,5" points="8,-70 8,-138 618,-138 618,-70 8,-70"/>
</g>
<g id="clust10" class="cluster">
<title>cluster_AuthModule_exports</title>
<polygon fill="none" stroke="black" points="504,-78 504,-130 610,-130 610,-78 504,-78"/>
</g>
<g id="clust12" class="cluster">
<title>cluster_AuthModule_providers</title>
<polygon fill="none" stroke="black" points="16,-78 16,-130 496,-130 496,-78 16,-78"/>
</g>
<g id="clust13" class="cluster">
<title>cluster_EmailModule</title>
<polygon fill="none" stroke="black" stroke-dasharray="1,5" points="1628,-146 1628,-214 1904,-214 1904,-146 1628,-146"/>
</g>
<g id="clust16" class="cluster">
<title>cluster_EmailModule_exports</title>
<polygon fill="none" stroke="black" points="1786,-154 1786,-206 1896,-206 1896,-154 1786,-154"/>
</g>
<g id="clust18" class="cluster">
<title>cluster_EmailModule_providers</title>
<polygon fill="none" stroke="black" points="1636,-154 1636,-206 1778,-206 1778,-154 1636,-154"/>
</g>
<g id="clust19" class="cluster">
<title>cluster_InscriptionModule</title>
<polygon fill="none" stroke="black" stroke-dasharray="1,5" points="1912,-146 1912,-214 2254,-214 2254,-146 1912,-146"/>
</g>
<g id="clust22" class="cluster">
<title>cluster_InscriptionModule_exports</title>
<polygon fill="none" stroke="black" points="2108,-154 2108,-206 2246,-206 2246,-154 2108,-154"/>
</g>
<g id="clust24" class="cluster">
<title>cluster_InscriptionModule_providers</title>
<polygon fill="none" stroke="black" points="1920,-154 1920,-206 2100,-206 2100,-154 1920,-154"/>
</g>
<g id="clust25" class="cluster">
<title>cluster_MarqueModule</title>
<polygon fill="none" stroke="black" stroke-dasharray="1,5" points="2262,-146 2262,-214 2564,-214 2564,-146 2262,-146"/>
</g>
<g id="clust28" class="cluster">
<title>cluster_MarqueModule_exports</title>
<polygon fill="none" stroke="black" points="2434,-154 2434,-206 2556,-206 2556,-154 2434,-154"/>
</g>
<g id="clust30" class="cluster">
<title>cluster_MarqueModule_providers</title>
<polygon fill="none" stroke="black" points="2270,-154 2270,-206 2426,-206 2426,-154 2270,-154"/>
</g>
<g id="clust31" class="cluster">
<title>cluster_ProfilModule</title>
<polygon fill="none" stroke="black" stroke-dasharray="1,5" points="2572,-146 2572,-214 2846,-214 2846,-146 2572,-146"/>
</g>
<g id="clust34" class="cluster">
<title>cluster_ProfilModule_exports</title>
<polygon fill="none" stroke="black" points="2728,-154 2728,-206 2838,-206 2838,-154 2728,-154"/>
</g>
<g id="clust36" class="cluster">
<title>cluster_ProfilModule_providers</title>
<polygon fill="none" stroke="black" points="2580,-154 2580,-206 2720,-206 2720,-154 2580,-154"/>
</g>
<g id="clust37" class="cluster">
<title>cluster_TrajetModule</title>
<polygon fill="none" stroke="black" stroke-dasharray="1,5" points="1628,-222 1628,-290 1904,-290 1904,-222 1628,-222"/>
</g>
<g id="clust40" class="cluster">
<title>cluster_TrajetModule_exports</title>
<polygon fill="none" stroke="black" points="1786,-230 1786,-282 1896,-282 1896,-230 1786,-230"/>
</g>
<g id="clust42" class="cluster">
<title>cluster_TrajetModule_providers</title>
<polygon fill="none" stroke="black" points="1636,-230 1636,-282 1778,-282 1778,-230 1636,-230"/>
</g>
<g id="clust43" class="cluster">
<title>cluster_UtilisateurModule</title>
<polygon fill="none" stroke="black" stroke-dasharray="1,5" points="2854,-146 2854,-214 3192,-214 3192,-146 2854,-146"/>
</g>
<g id="clust46" class="cluster">
<title>cluster_UtilisateurModule_exports</title>
<polygon fill="none" stroke="black" points="3048,-154 3048,-206 3184,-206 3184,-154 3048,-154"/>
</g>
<g id="clust48" class="cluster">
<title>cluster_UtilisateurModule_providers</title>
<polygon fill="none" stroke="black" points="2862,-154 2862,-206 3040,-206 3040,-154 2862,-154"/>
</g>
<g id="clust49" class="cluster">
<title>cluster_VilleModule</title>
<polygon fill="none" stroke="black" stroke-dasharray="1,5" points="3200,-146 3200,-214 3464,-214 3464,-146 3200,-146"/>
</g>
<g id="clust52" class="cluster">
<title>cluster_VilleModule_exports</title>
<polygon fill="none" stroke="black" points="3350,-154 3350,-206 3456,-206 3456,-154 3350,-154"/>
</g>
<g id="clust54" class="cluster">
<title>cluster_VilleModule_providers</title>
<polygon fill="none" stroke="black" points="3208,-154 3208,-206 3342,-206 3342,-154 3208,-154"/>
</g>
<g id="clust55" class="cluster">
<title>cluster_VoitureModule</title>
<polygon fill="none" stroke="black" stroke-dasharray="1,5" points="3472,-146 3472,-214 3770,-214 3770,-146 3472,-146"/>
</g>
<g id="clust58" class="cluster">
<title>cluster_VoitureModule_exports</title>
<polygon fill="none" stroke="black" points="3642,-154 3642,-206 3762,-206 3762,-154 3642,-154"/>
</g>
<g id="clust60" class="cluster">
<title>cluster_VoitureModule_providers</title>
<polygon fill="none" stroke="black" points="3480,-154 3480,-206 3634,-206 3634,-154 3480,-154"/>
</g>
<!-- AuthModule -->
<g id="node1" class="node">
<title>AuthModule</title>
<polygon fill="#8dd3c7" stroke="black" points="867.55,-198 864.55,-202 843.55,-202 840.55,-198 780.45,-198 780.45,-162 867.55,-162 867.55,-198"/>
<text text-anchor="middle" x="824" y="-175.8" font-family="Times,serif" font-size="14.00">AuthModule</text>
</g>
<!-- AppModule -->
<g id="node10" class="node">
<title>AppModule</title>
<polygon fill="#8dd3c7" stroke="black" points="1136.66,-274 1133.66,-278 1112.66,-278 1109.66,-274 1053.34,-274 1053.34,-238 1136.66,-238 1136.66,-274"/>
<text text-anchor="middle" x="1095" y="-251.8" font-family="Times,serif" font-size="14.00">AppModule</text>
</g>
<!-- AuthModule&#45;&gt;AppModule -->
<g id="edge1" class="edge">
<title>AuthModule&#45;&gt;AppModule</title>
<path fill="none" stroke="black" d="M824,-198.15C824,-221.76 824,-260 824,-260 824,-260 1043.25,-260 1043.25,-260"/>
<polygon fill="black" stroke="black" points="1043.25,-263.5 1053.25,-260 1043.25,-256.5 1043.25,-263.5"/>
</g>
<!-- AuthService  -->
<g id="node12" class="node">
<title>AuthService </title>
<polygon fill="#fb8072" stroke="black" points="601.98,-122 512.02,-122 512.02,-86 601.98,-86 601.98,-122"/>
<text text-anchor="middle" x="557" y="-99.8" font-family="Times,serif" font-size="14.00">AuthService </text>
</g>
<!-- AuthModule&#45;&gt;AuthService  -->
<g id="edge13" class="edge">
<title>AuthModule&#45;&gt;AuthService </title>
<path fill="none" stroke="black" stroke-dasharray="5,2" d="M780.37,-180C772.94,-180 767.56,-180 767.56,-180 767.56,-180 767.56,-104 767.56,-104 767.56,-104 611.91,-104 611.91,-104"/>
<polygon fill="black" stroke="black" points="611.91,-100.5 601.91,-104 611.91,-107.5 611.91,-100.5"/>
</g>
<!-- EmailModule -->
<g id="node2" class="node">
<title>EmailModule</title>
<polygon fill="#8dd3c7" stroke="black" points="872.49,-122 869.49,-126 848.49,-126 845.49,-122 779.51,-122 779.51,-86 872.49,-86 872.49,-122"/>
<text text-anchor="middle" x="826" y="-99.8" font-family="Times,serif" font-size="14.00">EmailModule</text>
</g>
<!-- TrajetModule -->
<g id="node6" class="node">
<title>TrajetModule</title>
<polygon fill="#8dd3c7" stroke="black" points="1046.47,-198 1043.47,-202 1022.47,-202 1019.47,-198 953.53,-198 953.53,-162 1046.47,-162 1046.47,-198"/>
<text text-anchor="middle" x="1000" y="-175.8" font-family="Times,serif" font-size="14.00">TrajetModule</text>
</g>
<!-- EmailModule&#45;&gt;TrajetModule -->
<g id="edge25" class="edge">
<title>EmailModule&#45;&gt;TrajetModule</title>
<path fill="none" stroke="black" d="M872.59,-98C879.72,-98 884.76,-98 884.76,-98 884.76,-98 884.76,-180 884.76,-180 884.76,-180 943.46,-180 943.46,-180"/>
<polygon fill="black" stroke="black" points="943.46,-183.5 953.46,-180 943.46,-176.5 943.46,-183.5"/>
</g>
<!-- EmailModule&#45;&gt;AppModule -->
<g id="edge2" class="edge">
<title>EmailModule&#45;&gt;AppModule</title>
<path fill="none" stroke="black" d="M872.59,-110C876.29,-110 878.63,-110 878.63,-110 878.63,-110 878.63,-253 878.63,-253 878.63,-253 1043.28,-253 1043.28,-253"/>
<polygon fill="black" stroke="black" points="1043.28,-256.5 1053.28,-253 1043.28,-249.5 1043.28,-256.5"/>
</g>
<!-- EmailService  -->
<g id="node16" class="node">
<title>EmailService </title>
<polygon fill="#fb8072" stroke="black" points="1888.42,-198 1793.58,-198 1793.58,-162 1888.42,-162 1888.42,-198"/>
<text text-anchor="middle" x="1841" y="-175.8" font-family="Times,serif" font-size="14.00">EmailService </text>
</g>
<!-- EmailModule&#45;&gt;EmailService  -->
<g id="edge17" class="edge">
<title>EmailModule&#45;&gt;EmailService </title>
<path fill="none" stroke="black" stroke-dasharray="5,2" d="M824,-122.04C824,-135.29 824,-151 824,-151 824,-151 1841,-151 1841,-151 1841,-151 1841,-152.08 1841,-152.08"/>
<polygon fill="black" stroke="black" points="1837.5,-151.8 1841,-161.8 1844.5,-151.8 1837.5,-151.8"/>
</g>
<!-- InscriptionModule -->
<g id="node3" class="node">
<title>InscriptionModule</title>
<polygon fill="#8dd3c7" stroke="black" points="1011.2,-122 1008.2,-126 987.2,-126 984.2,-122 890.8,-122 890.8,-86 1011.2,-86 1011.2,-122"/>
<text text-anchor="middle" x="951" y="-99.8" font-family="Times,serif" font-size="14.00">InscriptionModule</text>
</g>
<!-- InscriptionModule&#45;&gt;AppModule -->
<g id="edge3" class="edge">
<title>InscriptionModule&#45;&gt;AppModule</title>
<path fill="none" stroke="black" d="M922.21,-122.27C922.21,-160.63 922.21,-246 922.21,-246 922.21,-246 1043.17,-246 1043.17,-246"/>
<polygon fill="black" stroke="black" points="1043.17,-249.5 1053.17,-246 1043.17,-242.5 1043.17,-249.5"/>
</g>
<!-- InscriptionService  -->
<g id="node18" class="node">
<title>InscriptionService </title>
<polygon fill="#fb8072" stroke="black" points="2238.13,-198 2115.87,-198 2115.87,-162 2238.13,-162 2238.13,-198"/>
<text text-anchor="middle" x="2177" y="-175.8" font-family="Times,serif" font-size="14.00">InscriptionService </text>
</g>
<!-- InscriptionModule&#45;&gt;InscriptionService  -->
<g id="edge19" class="edge">
<title>InscriptionModule&#45;&gt;InscriptionService </title>
<path fill="none" stroke="black" stroke-dasharray="5,2" d="M972.71,-122.11C972.71,-131.9 972.71,-142 972.71,-142 972.71,-142 2177,-142 2177,-142 2177,-142 2177,-151.89 2177,-151.89"/>
<polygon fill="black" stroke="black" points="2173.5,-151.89 2177,-161.89 2180.5,-151.89 2173.5,-151.89"/>
</g>
<!-- MarqueModule -->
<g id="node4" class="node">
<title>MarqueModule</title>
<polygon fill="#8dd3c7" stroke="black" points="1132.58,-122 1129.58,-126 1108.58,-126 1105.58,-122 1029.42,-122 1029.42,-86 1132.58,-86 1132.58,-122"/>
<text text-anchor="middle" x="1081" y="-99.8" font-family="Times,serif" font-size="14.00">MarqueModule</text>
</g>
<!-- MarqueModule&#45;&gt;AppModule -->
<g id="edge4" class="edge">
<title>MarqueModule&#45;&gt;AppModule</title>
<path fill="none" stroke="black" d="M1116.67,-122.03C1116.67,-122.03 1116.67,-227.99 1116.67,-227.99"/>
<polygon fill="black" stroke="black" points="1113.17,-227.99 1116.67,-237.99 1120.17,-227.99 1113.17,-227.99"/>
</g>
<!-- MarqueService  -->
<g id="node20" class="node">
<title>MarqueService </title>
<polygon fill="#fb8072" stroke="black" points="2547.51,-198 2442.49,-198 2442.49,-162 2547.51,-162 2547.51,-198"/>
<text text-anchor="middle" x="2495" y="-175.8" font-family="Times,serif" font-size="14.00">MarqueService </text>
</g>
<!-- MarqueModule&#45;&gt;MarqueService  -->
<g id="edge21" class="edge">
<title>MarqueModule&#45;&gt;MarqueService </title>
<path fill="none" stroke="black" stroke-dasharray="5,2" d="M1069.05,-122.19C1069.05,-130.28 1069.05,-138 1069.05,-138 1069.05,-138 2495,-138 2495,-138 2495,-138 2495,-151.94 2495,-151.94"/>
<polygon fill="black" stroke="black" points="2491.5,-151.94 2495,-161.94 2498.5,-151.94 2491.5,-151.94"/>
</g>
<!-- ProfilModule -->
<g id="node5" class="node">
<title>ProfilModule</title>
<polygon fill="#8dd3c7" stroke="black" points="1241.94,-122 1238.94,-126 1217.94,-126 1214.94,-122 1150.06,-122 1150.06,-86 1241.94,-86 1241.94,-122"/>
<text text-anchor="middle" x="1196" y="-99.8" font-family="Times,serif" font-size="14.00">ProfilModule</text>
</g>
<!-- ProfilModule&#45;&gt;AppModule -->
<g id="edge5" class="edge">
<title>ProfilModule&#45;&gt;AppModule</title>
<path fill="none" stroke="black" d="M1218.86,-122.2C1218.86,-161.33 1218.86,-250 1218.86,-250 1218.86,-250 1146.93,-250 1146.93,-250"/>
<polygon fill="black" stroke="black" points="1146.93,-246.5 1136.93,-250 1146.93,-253.5 1146.93,-246.5"/>
</g>
<!-- ProfilService  -->
<g id="node22" class="node">
<title>ProfilService </title>
<polygon fill="#fb8072" stroke="black" points="2829.86,-198 2736.14,-198 2736.14,-162 2829.86,-162 2829.86,-198"/>
<text text-anchor="middle" x="2783" y="-175.8" font-family="Times,serif" font-size="14.00">ProfilService </text>
</g>
<!-- ProfilModule&#45;&gt;ProfilService  -->
<g id="edge23" class="edge">
<title>ProfilModule&#45;&gt;ProfilService </title>
<path fill="none" stroke="black" stroke-dasharray="5,2" d="M1173.14,-122.14C1173.14,-128.46 1173.14,-134 1173.14,-134 1173.14,-134 2783,-134 2783,-134 2783,-134 2783,-151.82 2783,-151.82"/>
<polygon fill="black" stroke="black" points="2779.5,-151.82 2783,-161.82 2786.5,-151.82 2779.5,-151.82"/>
</g>
<!-- TrajetModule&#45;&gt;AppModule -->
<g id="edge6" class="edge">
<title>TrajetModule&#45;&gt;AppModule</title>
<path fill="none" stroke="black" d="M1046.56,-186C1072.97,-186 1100.79,-186 1100.79,-186 1100.79,-186 1100.79,-227.97 1100.79,-227.97"/>
<polygon fill="black" stroke="black" points="1097.29,-227.97 1100.79,-237.97 1104.29,-227.97 1097.29,-227.97"/>
</g>
<!-- TrajetService  -->
<g id="node24" class="node">
<title>TrajetService </title>
<polygon fill="#fb8072" stroke="black" points="1888.4,-274 1793.6,-274 1793.6,-238 1888.4,-238 1888.4,-274"/>
<text text-anchor="middle" x="1841" y="-251.8" font-family="Times,serif" font-size="14.00">TrajetService </text>
</g>
<!-- TrajetModule&#45;&gt;TrajetService  -->
<g id="edge26" class="edge">
<title>TrajetModule&#45;&gt;TrajetService </title>
<path fill="none" stroke="black" stroke-dasharray="5,2" d="M1000,-198.11C1000,-207.9 1000,-218 1000,-218 1000,-218 1841,-218 1841,-218 1841,-218 1841,-227.89 1841,-227.89"/>
<polygon fill="black" stroke="black" points="1837.5,-227.89 1841,-237.89 1844.5,-227.89 1837.5,-227.89"/>
</g>
<!-- UtilisateurModule -->
<g id="node7" class="node">
<title>UtilisateurModule</title>
<polygon fill="#8dd3c7" stroke="black" points="1378.14,-122 1375.14,-126 1354.14,-126 1351.14,-122 1259.86,-122 1259.86,-86 1378.14,-86 1378.14,-122"/>
<text text-anchor="middle" x="1319" y="-99.8" font-family="Times,serif" font-size="14.00">UtilisateurModule</text>
</g>
<!-- UtilisateurModule&#45;&gt;AuthModule -->
<g id="edge11" class="edge">
<title>UtilisateurModule&#45;&gt;AuthModule</title>
<path fill="none" stroke="black" d="M1283.41,-122.49C1283.41,-134.14 1283.41,-147 1283.41,-147 1283.41,-147 834.94,-147 834.94,-147 834.94,-147 834.94,-151.96 834.94,-151.96"/>
<polygon fill="black" stroke="black" points="831.44,-151.96 834.94,-161.96 838.44,-151.96 831.44,-151.96"/>
</g>
<!-- UtilisateurModule&#45;&gt;AppModule -->
<g id="edge7" class="edge">
<title>UtilisateurModule&#45;&gt;AppModule</title>
<path fill="none" stroke="black" d="M1354.59,-122.03C1354.59,-162.3 1354.59,-256 1354.59,-256 1354.59,-256 1146.71,-256 1146.71,-256"/>
<polygon fill="black" stroke="black" points="1146.71,-252.5 1136.71,-256 1146.71,-259.5 1146.71,-252.5"/>
</g>
<!-- UtilisateurService  -->
<g id="node26" class="node">
<title>UtilisateurService </title>
<polygon fill="#fb8072" stroke="black" points="3176.07,-198 3055.93,-198 3055.93,-162 3176.07,-162 3176.07,-198"/>
<text text-anchor="middle" x="3116" y="-175.8" font-family="Times,serif" font-size="14.00">UtilisateurService </text>
</g>
<!-- UtilisateurModule&#45;&gt;UtilisateurService  -->
<g id="edge28" class="edge">
<title>UtilisateurModule&#45;&gt;UtilisateurService </title>
<path fill="none" stroke="black" stroke-dasharray="5,2" d="M1307.14,-122.17C1307.14,-126.05 1307.14,-129 1307.14,-129 1307.14,-129 3116,-129 3116,-129 3116,-129 3116,-151.88 3116,-151.88"/>
<polygon fill="black" stroke="black" points="3112.5,-151.88 3116,-161.88 3119.5,-151.88 3112.5,-151.88"/>
</g>
<!-- VilleModule -->
<g id="node8" class="node">
<title>VilleModule</title>
<polygon fill="#8dd3c7" stroke="black" points="1483.54,-122 1480.54,-126 1459.54,-126 1456.54,-122 1396.46,-122 1396.46,-86 1483.54,-86 1483.54,-122"/>
<text text-anchor="middle" x="1440" y="-99.8" font-family="Times,serif" font-size="14.00">VilleModule</text>
</g>
<!-- VilleModule&#45;&gt;AppModule -->
<g id="edge8" class="edge">
<title>VilleModule&#45;&gt;AppModule</title>
<path fill="none" stroke="black" d="M1461.89,-122.12C1461.89,-163.63 1461.89,-262 1461.89,-262 1461.89,-262 1146.73,-262 1146.73,-262"/>
<polygon fill="black" stroke="black" points="1146.73,-258.5 1136.73,-262 1146.73,-265.5 1146.73,-258.5"/>
</g>
<!-- VilleService  -->
<g id="node28" class="node">
<title>VilleService </title>
<polygon fill="#fb8072" stroke="black" points="3447.97,-198 3358.03,-198 3358.03,-162 3447.97,-162 3447.97,-198"/>
<text text-anchor="middle" x="3403" y="-175.8" font-family="Times,serif" font-size="14.00">VilleService </text>
</g>
<!-- VilleModule&#45;&gt;VilleService  -->
<g id="edge30" class="edge">
<title>VilleModule&#45;&gt;VilleService </title>
<path fill="none" stroke="black" stroke-dasharray="5,2" d="M1418.11,-122.08C1418.11,-123.85 1418.11,-125 1418.11,-125 1418.11,-125 3403,-125 3403,-125 3403,-125 3403,-151.99 3403,-151.99"/>
<polygon fill="black" stroke="black" points="3399.5,-151.99 3403,-161.99 3406.5,-151.99 3399.5,-151.99"/>
</g>
<!-- VoitureModule -->
<g id="node9" class="node">
<title>VoitureModule</title>
<polygon fill="#8dd3c7" stroke="black" points="1604.31,-122 1601.31,-126 1580.31,-126 1577.31,-122 1501.69,-122 1501.69,-86 1604.31,-86 1604.31,-122"/>
<text text-anchor="middle" x="1553" y="-99.8" font-family="Times,serif" font-size="14.00">VoitureModule</text>
</g>
<!-- VoitureModule&#45;&gt;AuthModule -->
<g id="edge12" class="edge">
<title>VoitureModule&#45;&gt;AuthModule</title>
<path fill="none" stroke="black" d="M1535.95,-122.04C1535.95,-134.56 1535.95,-149 1535.95,-149 1535.95,-149 845.89,-149 845.89,-149 845.89,-149 845.89,-151.97 845.89,-151.97"/>
<polygon fill="black" stroke="black" points="842.39,-151.97 845.89,-161.97 849.39,-151.97 842.39,-151.97"/>
</g>
<!-- VoitureModule&#45;&gt;AppModule -->
<g id="edge9" class="edge">
<title>VoitureModule&#45;&gt;AppModule</title>
<path fill="none" stroke="black" d="M1570.05,-122.18C1570.05,-164.88 1570.05,-268 1570.05,-268 1570.05,-268 1146.74,-268 1146.74,-268"/>
<polygon fill="black" stroke="black" points="1146.74,-264.5 1136.74,-268 1146.74,-271.5 1146.74,-264.5"/>
</g>
<!-- VoitureService  -->
<g id="node30" class="node">
<title>VoitureService </title>
<polygon fill="#fb8072" stroke="black" points="3754.24,-198 3649.76,-198 3649.76,-162 3754.24,-162 3754.24,-198"/>
<text text-anchor="middle" x="3702" y="-175.8" font-family="Times,serif" font-size="14.00">VoitureService </text>
</g>
<!-- VoitureModule&#45;&gt;VoitureService  -->
<g id="edge32" class="edge">
<title>VoitureModule&#45;&gt;VoitureService </title>
<path fill="none" stroke="black" stroke-dasharray="5,2" d="M1604.26,-98C1930.39,-98 3702,-98 3702,-98 3702,-98 3702,-151.8 3702,-151.8"/>
<polygon fill="black" stroke="black" points="3698.5,-151.8 3702,-161.8 3705.5,-151.8 3698.5,-151.8"/>
</g>
<!-- AppService -->
<g id="node11" class="node">
<title>AppService</title>
<ellipse fill="#fdb462" stroke="black" cx="699" cy="-180" rx="56.74" ry="18"/>
<text text-anchor="middle" x="699" y="-175.8" font-family="Times,serif" font-size="14.00">AppService</text>
</g>
<!-- AppService&#45;&gt;AppModule -->
<g id="edge10" class="edge">
<title>AppService&#45;&gt;AppModule</title>
<path fill="none" stroke="black" d="M699,-198.03C699,-223.51 699,-267 699,-267 699,-267 1043,-267 1043,-267"/>
<polygon fill="black" stroke="black" points="1043,-270.5 1053,-267 1043,-263.5 1043,-270.5"/>
</g>
<!-- AuthService -->
<g id="node13" class="node">
<title>AuthService</title>
<ellipse fill="#fdb462" stroke="black" cx="429" cy="-104" rx="59.11" ry="18"/>
<text text-anchor="middle" x="429" y="-99.8" font-family="Times,serif" font-size="14.00">AuthService</text>
</g>
<!-- AuthService&#45;&gt;AuthModule -->
<g id="edge14" class="edge">
<title>AuthService&#45;&gt;AuthModule</title>
<path fill="none" stroke="black" d="M429,-122.19C429,-137.18 429,-156 429,-156 429,-156 813.06,-156 813.06,-156 813.06,-156 813.06,-156.58 813.06,-156.58"/>
<polygon fill="black" stroke="black" points="809.56,-151.81 813.06,-161.81 816.56,-151.81 809.56,-151.81"/>
</g>
<!-- JwtStrategy -->
<g id="node14" class="node">
<title>JwtStrategy</title>
<ellipse fill="#fdb462" stroke="black" cx="295" cy="-104" rx="56.76" ry="18"/>
<text text-anchor="middle" x="295" y="-99.8" font-family="Times,serif" font-size="14.00">JwtStrategy</text>
</g>
<!-- JwtStrategy&#45;&gt;AuthModule -->
<g id="edge15" class="edge">
<title>JwtStrategy&#45;&gt;AuthModule</title>
<path fill="none" stroke="black" d="M295,-122.28C295,-137.95 295,-158 295,-158 295,-158 802.11,-158 802.11,-158 802.11,-158 802.11,-158.38 802.11,-158.38"/>
<polygon fill="black" stroke="black" points="798.61,-151.83 802.11,-161.83 805.61,-151.83 798.61,-151.83"/>
</g>
<!-- RefreshTokenStrategy -->
<g id="node15" class="node">
<title>RefreshTokenStrategy</title>
<ellipse fill="#fdb462" stroke="black" cx="122" cy="-104" rx="97.83" ry="18"/>
<text text-anchor="middle" x="122" y="-99.8" font-family="Times,serif" font-size="14.00">RefreshTokenStrategy</text>
</g>
<!-- RefreshTokenStrategy&#45;&gt;AuthModule -->
<g id="edge16" class="edge">
<title>RefreshTokenStrategy&#45;&gt;AuthModule</title>
<path fill="none" stroke="black" d="M122,-122.03C122,-138.4 122,-160 122,-160 122,-160 791.17,-160 791.17,-160 791.17,-160 791.17,-160.18 791.17,-160.18"/>
<polygon fill="black" stroke="black" points="787.67,-151.85 791.17,-161.85 794.67,-151.85 787.67,-151.85"/>
</g>
<!-- EmailService -->
<g id="node17" class="node">
<title>EmailService</title>
<ellipse fill="#fdb462" stroke="black" cx="1707" cy="-180" rx="63.12" ry="18"/>
<text text-anchor="middle" x="1707" y="-175.8" font-family="Times,serif" font-size="14.00">EmailService</text>
</g>
<!-- EmailService&#45;&gt;EmailModule -->
<g id="edge18" class="edge">
<title>EmailService&#45;&gt;EmailModule</title>
<path fill="none" stroke="black" d="M1707,-161.94C1707,-157.51 1707,-154 1707,-154 1707,-154 856.83,-154 856.83,-154 856.83,-154 856.83,-132.05 856.83,-132.05"/>
<polygon fill="black" stroke="black" points="860.33,-132.05 856.83,-122.05 853.33,-132.05 860.33,-132.05"/>
</g>
<!-- InscriptionService -->
<g id="node19" class="node">
<title>InscriptionService</title>
<ellipse fill="#fdb462" stroke="black" cx="2010" cy="-180" rx="81.66" ry="18"/>
<text text-anchor="middle" x="2010" y="-175.8" font-family="Times,serif" font-size="14.00">InscriptionService</text>
</g>
<!-- InscriptionService&#45;&gt;InscriptionModule -->
<g id="edge20" class="edge">
<title>InscriptionService&#45;&gt;InscriptionModule</title>
<path fill="none" stroke="black" d="M2010,-161.68C2010,-153.21 2010,-145 2010,-145 2010,-145 991.91,-145 991.91,-145 991.91,-145 991.91,-132.1 991.91,-132.1"/>
<polygon fill="black" stroke="black" points="995.41,-132.1 991.91,-122.1 988.41,-132.1 995.41,-132.1"/>
</g>
<!-- MarqueService -->
<g id="node21" class="node">
<title>MarqueService</title>
<ellipse fill="#fdb462" stroke="black" cx="2348" cy="-180" rx="70.04" ry="18"/>
<text text-anchor="middle" x="2348" y="-175.8" font-family="Times,serif" font-size="14.00">MarqueService</text>
</g>
<!-- MarqueService&#45;&gt;MarqueModule -->
<g id="edge22" class="edge">
<title>MarqueService&#45;&gt;MarqueModule</title>
<path fill="none" stroke="black" d="M2348,-161.87C2348,-151.29 2348,-140 2348,-140 2348,-140 1084.92,-140 1084.92,-140 1084.92,-140 1084.92,-132.42 1084.92,-132.42"/>
<polygon fill="black" stroke="black" points="1088.42,-132.42 1084.92,-122.42 1081.42,-132.42 1088.42,-132.42"/>
</g>
<!-- ProfilService -->
<g id="node23" class="node">
<title>ProfilService</title>
<ellipse fill="#fdb462" stroke="black" cx="2650" cy="-180" rx="61.97" ry="18"/>
<text text-anchor="middle" x="2650" y="-175.8" font-family="Times,serif" font-size="14.00">ProfilService</text>
</g>
<!-- ProfilService&#45;&gt;ProfilModule -->
<g id="edge24" class="edge">
<title>ProfilService&#45;&gt;ProfilModule</title>
<path fill="none" stroke="black" d="M2650,-161.85C2650,-149.73 2650,-136 2650,-136 2650,-136 1196,-136 1196,-136 1196,-136 1196,-132.24 1196,-132.24"/>
<polygon fill="black" stroke="black" points="1199.5,-132.24 1196,-122.24 1192.5,-132.24 1199.5,-132.24"/>
</g>
<!-- TrajetService -->
<g id="node25" class="node">
<title>TrajetService</title>
<ellipse fill="#fdb462" stroke="black" cx="1707" cy="-256" rx="63.09" ry="18"/>
<text text-anchor="middle" x="1707" y="-251.8" font-family="Times,serif" font-size="14.00">TrajetService</text>
</g>
<!-- TrajetService&#45;&gt;TrajetModule -->
<g id="edge27" class="edge">
<title>TrajetService&#45;&gt;TrajetModule</title>
<path fill="none" stroke="black" d="M1659.71,-244C1641.08,-244 1624.05,-244 1624.05,-244 1624.05,-244 1624.05,-174 1624.05,-174 1624.05,-174 1056.65,-174 1056.65,-174"/>
<polygon fill="black" stroke="black" points="1056.65,-170.5 1046.65,-174 1056.65,-177.5 1056.65,-170.5"/>
</g>
<!-- UtilisateurService -->
<g id="node27" class="node">
<title>UtilisateurService</title>
<ellipse fill="#fdb462" stroke="black" cx="2951" cy="-180" rx="80.51" ry="18"/>
<text text-anchor="middle" x="2951" y="-175.8" font-family="Times,serif" font-size="14.00">UtilisateurService</text>
</g>
<!-- UtilisateurService&#45;&gt;UtilisateurModule -->
<g id="edge29" class="edge">
<title>UtilisateurService&#45;&gt;UtilisateurModule</title>
<path fill="none" stroke="black" d="M2951,-161.75C2951,-147.82 2951,-131 2951,-131 2951,-131 1330.86,-131 1330.86,-131 1330.86,-131 1330.86,-130.12 1330.86,-130.12"/>
<polygon fill="black" stroke="black" points="1334.36,-132.16 1330.86,-122.16 1327.36,-132.16 1334.36,-132.16"/>
</g>
<!-- VilleService -->
<g id="node29" class="node">
<title>VilleService</title>
<ellipse fill="#fdb462" stroke="black" cx="3275" cy="-180" rx="59.1" ry="18"/>
<text text-anchor="middle" x="3275" y="-175.8" font-family="Times,serif" font-size="14.00">VilleService</text>
</g>
<!-- VilleService&#45;&gt;VilleModule -->
<g id="edge31" class="edge">
<title>VilleService&#45;&gt;VilleModule</title>
<path fill="none" stroke="black" d="M3275,-161.76C3275,-146.43 3275,-127 3275,-127 3275,-127 1440,-127 1440,-127 1440,-127 1440,-126.51 1440,-126.51"/>
<polygon fill="black" stroke="black" points="1443.5,-132.12 1440,-122.12 1436.5,-132.12 1443.5,-132.12"/>
</g>
<!-- VoitureService -->
<g id="node31" class="node">
<title>VoitureService</title>
<ellipse fill="#fdb462" stroke="black" cx="3557" cy="-180" rx="69.48" ry="18"/>
<text text-anchor="middle" x="3557" y="-175.8" font-family="Times,serif" font-size="14.00">VoitureService</text>
</g>
<!-- VoitureService&#45;&gt;VoitureModule -->
<g id="edge33" class="edge">
<title>VoitureService&#45;&gt;VoitureModule</title>
<path fill="none" stroke="black" d="M3557,-161.97C3557,-141.23 3557,-110 3557,-110 3557,-110 1614.3,-110 1614.3,-110"/>
<polygon fill="black" stroke="black" points="1614.3,-106.5 1604.3,-110 1614.3,-113.5 1614.3,-106.5"/>
</g>
</g>
</svg>
